<?xml version="1.0" encoding="UTF-8" standalone="no"?>
<!-- Created with Inkscape (http://www.inkscape.org/) -->

<svg
   sodipodi:docname="figures_new_color.svg"
   inkscape:version="1.3 (0e150ed6c4, 2023-07-21)"
   id="svg854"
   version="1.1"
   viewBox="0 0 120.67687 73.614798"
   height="73.614754mm"
   width="120.67687mm"
   inkscape:export-filename="/home/home/ownCloud2/proposals/veni2021/figures/scheme.png"
   inkscape:export-xdpi="200"
   inkscape:export-ydpi="200"
   xml:space="preserve"
   xmlns:inkscape="http://www.inkscape.org/namespaces/inkscape"
   xmlns:sodipodi="http://sodipodi.sourceforge.net/DTD/sodipodi-0.dtd"
   xmlns="http://www.w3.org/2000/svg"
   xmlns:svg="http://www.w3.org/2000/svg"
   xmlns:rdf="http://www.w3.org/1999/02/22-rdf-syntax-ns#"
   xmlns:cc="http://creativecommons.org/ns#"
   xmlns:dc="http://purl.org/dc/elements/1.1/"
   xmlns:ns1="http://www.iki.fi/pav/software/textext/"><sodipodi:namedview
     id="base"
     pagecolor="#ffffff"
     bordercolor="#666666"
     borderopacity="1.0"
     inkscape:pageopacity="0.0"
     inkscape:pageshadow="2"
     inkscape:zoom="0.46053446"
     inkscape:cx="16524.279"
     inkscape:cy="-167.19704"
     inkscape:document-units="mm"
     inkscape:current-layer="layer1"
     showgrid="false"
     inkscape:window-width="1920"
     inkscape:window-height="1064"
     inkscape:window-x="0"
     inkscape:window-y="16"
     inkscape:window-maximized="1"
     inkscape:measure-start="1676.07,1011.79"
     inkscape:measure-end="1694.29,1021.79"
     fit-margin-top="0"
     fit-margin-left="0"
     fit-margin-right="0"
     fit-margin-bottom="0"
     inkscape:snap-object-midpoints="true"
     inkscape:snap-center="true"
     inkscape:snap-global="false"
     inkscape:lockguides="true"
     showguides="false"
     inkscape:snap-page="true"
     inkscape:showpageshadow="2"
     inkscape:pagecheckerboard="0"
     inkscape:deskcolor="#d1d1d1" /><defs
     id="defs848"><marker
       style="overflow:visible"
       id="marker5339"
       refX="0"
       refY="0"
       orient="auto-start-reverse"
       inkscape:stockid="Dart arrow"
       markerWidth="1"
       markerHeight="1"
       viewBox="0 0 1 1"
       inkscape:isstock="true"
       inkscape:collect="always"
       preserveAspectRatio="xMidYMid"><path
         style="fill:context-stroke;fill-rule:evenodd;stroke:none"
         d="M 0,0 5,-5 -12.5,0 5,5 Z"
         transform="scale(-0.5)"
         id="path5339" /></marker><marker
       style="overflow:visible"
       id="marker5303"
       refX="0"
       refY="0"
       orient="auto-start-reverse"
       inkscape:stockid="Dart arrow"
       markerWidth="1"
       markerHeight="1"
       viewBox="0 0 1 1"
       inkscape:isstock="true"
       inkscape:collect="always"
       preserveAspectRatio="xMidYMid"><path
         style="fill:context-stroke;fill-rule:evenodd;stroke:none"
         d="M 0,0 5,-5 -12.5,0 5,5 Z"
         transform="scale(-0.5)"
         id="path5303" /></marker><marker
       style="overflow:visible"
       id="marker5301"
       refX="0"
       refY="0"
       orient="auto-start-reverse"
       inkscape:stockid="Dart arrow"
       markerWidth="1"
       markerHeight="1"
       viewBox="0 0 1 1"
       inkscape:isstock="true"
       inkscape:collect="always"
       preserveAspectRatio="xMidYMid"><path
         style="fill:context-stroke;fill-rule:evenodd;stroke:none"
         d="M 0,0 5,-5 -12.5,0 5,5 Z"
         transform="scale(-0.5)"
         id="path5301" /></marker></defs><metadata
     id="metadata851"><rdf:RDF><cc:Work
         rdf:about=""><dc:format>image/svg+xml</dc:format><dc:type
           rdf:resource="http://purl.org/dc/dcmitype/StillImage" /></cc:Work></rdf:RDF></metadata><g
     inkscape:label="Layer 1"
     inkscape:groupmode="layer"
     id="layer1"
     transform="translate(-3438.9503,-1707.8037)"><circle
       style="fill:#6f1d77;fill-opacity:1;stroke:#6f1d77;stroke-width:0.852091;stroke-linejoin:bevel;stroke-miterlimit:3.9;stroke-opacity:1"
       id="circle5115"
       cx="3461.0398"
       cy="1725.9202"
       r="7.8773355"
       inkscape:export-filename="classificationgraph1.svg"
       inkscape:export-xdpi="200"
       inkscape:export-ydpi="200" /><circle
       style="fill:#6f1d77;fill-opacity:1;stroke:#6f1d77;stroke-width:0.852091;stroke-linejoin:bevel;stroke-miterlimit:3.9;stroke-opacity:1"
       id="circle5116"
       cx="3461.0398"
       cy="1773.1151"
       r="7.8773355"
       inkscape:export-filename="classificationgraph1.svg"
       inkscape:export-xdpi="200"
       inkscape:export-ydpi="200" /><g
       transform="matrix(0,2.2216668,-2.2216668,0,3462.2036,1738.5197)"
       ns1:version="1.9.0"
       ns1:texconverter="pdflatex"
       ns1:pdfconverter="inkscape"
       ns1:text="$\\cdots$"
       ns1:preamble="/home/iuribarcelos/.config/inkscape/extensions/textext/default_packages.tex"
       ns1:scale="2.927767037627063"
       ns1:alignment="middle center"
       ns1:stroke-to-path="0"
       ns1:inkscapeversion="1.3"
       id="g5128"
       ns1:jacobian_sqrt="1.03285"><defs
   id="defs5118" />&#10;  <g
   fill="#000000"
   fill-opacity="1"
   id="g5121"
   transform="translate(-149.571,-131.749)">&#10;    <g
   transform="translate(148.712,134.765)"
   id="g5120"><path
   d="m 1.90625,-2.5 c 0,-0.28125 -0.234375,-0.515625 -0.515625,-0.515625 -0.296875,0 -0.53125,0.234375 -0.53125,0.515625 0,0.296875 0.234375,0.53125 0.53125,0.53125 0.28125,0 0.515625,-0.234375 0.515625,-0.53125 z m 0,0"
   id="path5118" />&#10;      </g></g>&#10;  <g
   fill="#000000"
   fill-opacity="1"
   id="g5124"
   transform="translate(-149.571,-131.749)">&#10;    <g
   transform="translate(153.143,134.765)"
   id="g5122"><path
   d="m 1.90625,-2.5 c 0,-0.28125 -0.234375,-0.515625 -0.515625,-0.515625 -0.296875,0 -0.53125,0.234375 -0.53125,0.515625 0,0.296875 0.234375,0.53125 0.53125,0.53125 0.28125,0 0.515625,-0.234375 0.515625,-0.53125 z m 0,0"
   id="path5121" />&#10;      </g></g>&#10;  <g
   fill="#000000"
   fill-opacity="1"
   id="g5126"
   transform="translate(-149.571,-131.749)">&#10;    <g
   transform="translate(157.565,134.765)"
   id="g5125"><path
   d="m 1.90625,-2.5 c 0,-0.28125 -0.234375,-0.515625 -0.515625,-0.515625 -0.296875,0 -0.53125,0.234375 -0.53125,0.515625 0,0.296875 0.234375,0.53125 0.53125,0.53125 0.28125,0 0.515625,-0.234375 0.515625,-0.53125 z m 0,0"
   id="path5124" />&#10;      </g></g>&#10;</g><g
       transform="matrix(1.03285,0,0,1.03285,3459.7007,1722.5388)"
       ns1:version="1.9.0"
       ns1:texconverter="pdflatex"
       ns1:pdfconverter="inkscape"
       ns1:text="$1$"
       ns1:preamble="/home/iuribarcelos/.config/inkscape/extensions/textext/default_packages.tex"
       ns1:scale="2.927767037627063"
       ns1:alignment="middle center"
       ns1:stroke-to-path="0"
       ns1:inkscapeversion="1.3"
       id="g5198"
       ns1:jacobian_sqrt="1.03285"><defs
   id="defs5184" />&#10;  <g
   fill="#000000"
   fill-opacity="1"
   id="g5186"
   transform="translate(-149.603,-128.124)">&#10;    <g
   transform="translate(148.712,134.765)"
   id="g5185"><path
   d="m 2.9375,-6.375 c 0,-0.25 0,-0.265625 -0.234375,-0.265625 C 2.078125,-6 1.203125,-6 0.890625,-6 v 0.3125 c 0.203125,0 0.78125,0 1.296875,-0.265625 v 5.171875 c 0,0.359375 -0.03125,0.46875 -0.921875,0.46875 h -0.3125 V 0 c 0.34375,-0.03125 1.203125,-0.03125 1.609375,-0.03125 0.390625,0 1.265625,0 1.609375,0.03125 v -0.3125 h -0.3125 c -0.90625,0 -0.921875,-0.109375 -0.921875,-0.46875 z m 0,0"
   id="path5184"
   style="fill:#ffffff" />&#10;      </g></g>&#10;</g><g
       transform="matrix(1.03285,0,0,1.03285,3457.1099,1769.5975)"
       ns1:version="1.9.0"
       ns1:texconverter="pdflatex"
       ns1:pdfconverter="inkscape"
       ns1:text="$D$"
       ns1:preamble="/home/iuribarcelos/.config/inkscape/extensions/textext/default_packages.tex"
       ns1:scale="2.927767037627063"
       ns1:alignment="middle center"
       ns1:stroke-to-path="0"
       ns1:inkscapeversion="1.3"
       id="g5204"
       ns1:jacobian_sqrt="1.03285"><defs
   id="defs5201" />&#10;  <g
   fill="#000000"
   fill-opacity="1"
   id="g5203"
   transform="translate(-149.118,-127.953)">&#10;    <g
   transform="translate(148.712,134.765)"
   id="g5202"><path
   d="m 1.578125,-0.78125 c -0.09375,0.390625 -0.109375,0.46875 -0.90625,0.46875 -0.15625,0 -0.265625,0 -0.265625,0.1875 C 0.40625,0 0.484375,0 0.671875,0 h 3.3125 c 2.0625,0 4.03125,-2.109375 4.03125,-4.28125 0,-1.40625 -0.84375,-2.53125 -2.34375,-2.53125 h -3.34375 c -0.1875,0 -0.296875,0 -0.296875,0.1875 0,0.125 0.078125,0.125 0.28125,0.125 0.125,0 0.3125,0.015625 0.421875,0.015625 0.171875,0.03125 0.21875,0.046875 0.21875,0.171875 0,0.03125 0,0.0625 -0.03125,0.1875 z M 3.734375,-6.125 C 3.828125,-6.46875 3.84375,-6.5 4.28125,-6.5 h 1.0625 c 0.96875,0 1.796875,0.53125 1.796875,1.84375 0,0.484375 -0.1875,2.125 -1.046875,3.21875 -0.28125,0.375 -1.0625,1.125 -2.296875,1.125 h -1.125 c -0.140625,0 -0.15625,0 -0.21875,0 -0.09375,-0.015625 -0.125,-0.03125 -0.125,-0.109375 0,-0.03125 0,-0.046875 0.046875,-0.21875 z m 0,0"
   id="path5201"
   style="fill:#ffffff" />&#10;      </g></g>&#10;</g><circle
       style="fill:#a50034;fill-opacity:0.945098;stroke:none;stroke-width:0.852091;stroke-linejoin:bevel;stroke-miterlimit:3.9;stroke-opacity:1"
       id="circle5267"
       cx="3497.3757"
       cy="1748.8939"
       r="7.8773355"
       inkscape:export-filename="classificationgraph1.svg"
       inkscape:export-xdpi="200"
       inkscape:export-ydpi="200" /><g
       transform="matrix(1.41111,0,0,1.41111,3438.9507,1746.3031)"
       ns1:version="1.9.0"
       ns1:texconverter="pdflatex"
       ns1:pdfconverter="inkscape"
       ns1:text="$\\mathbf{x}$"
       ns1:preamble="/home/iuribarcelos/.config/inkscape/extensions/textext/default_packages.tex"
       ns1:scale="4.0"
       ns1:alignment="middle center"
       ns1:stroke-to-path="0"
       ns1:inkscapeversion="1.3"
       id="g5272"
       ns1:jacobian_sqrt="1.41111"><defs
   id="defs5269" />&#10;  <g
   fill="#000000"
   fill-opacity="1"
   id="g5271"
   transform="translate(-148.931,-130.343)">&#10;    <g
   transform="translate(148.712,134.765)"
   id="g5270"><path
   d="M 3.453125,-2.453125 4.609375,-3.75 C 4.75,-3.890625 4.8125,-3.953125 5.625,-3.953125 v -0.46875 c -0.34375,0.015625 -0.859375,0.03125 -0.90625,0.03125 -0.25,0 -0.75,-0.03125 -1.03125,-0.03125 v 0.46875 c 0.140625,0 0.265625,0.015625 0.375,0.078125 -0.03125,0.0625 -0.03125,0.09375 -0.078125,0.125 L 3.15625,-2.8125 2.171875,-3.953125 h 0.40625 v -0.46875 c -0.265625,0 -0.890625,0.03125 -1.21875,0.03125 -0.3125,0 -0.765625,-0.03125 -1.09375,-0.03125 v 0.46875 h 0.71875 L 2.53125,-2.125 1.21875,-0.65625 c -0.15625,0.1875 -0.515625,0.1875 -1,0.1875 V 0 c 0.34375,-0.015625 0.875,-0.03125 0.921875,-0.03125 0.25,0 0.828125,0.015625 1.015625,0.03125 v -0.46875 c -0.171875,0 -0.359375,-0.046875 -0.359375,-0.109375 0,-0.015625 0,-0.015625 0.0625,-0.09375 l 0.96875,-1.09375 1.09375,1.296875 H 3.53125 V 0 c 0.265625,-0.015625 0.875,-0.03125 1.203125,-0.03125 0.3125,0 0.765625,0.015625 1.09375,0.03125 V -0.46875 H 5.125 Z m 0,0"
   id="path5269" />&#10;      </g></g>&#10;</g><g
       transform="matrix(1.41111,0,0,1.41111,3494.5549,1762.386)"
       ns1:version="1.9.0"
       ns1:texconverter="pdflatex"
       ns1:pdfconverter="inkscape"
       ns1:text="${z}$"
       ns1:preamble="/home/iuribarcelos/.config/inkscape/extensions/textext/default_packages.tex"
       ns1:scale="4.0"
       ns1:alignment="middle center"
       ns1:stroke-to-path="0"
       ns1:inkscapeversion="1.3"
       id="g5300"
       ns1:jacobian_sqrt="1.41111"><defs
   id="defs5297" />&#10;  <g
   fill="#000000"
   fill-opacity="1"
   id="g5299"
   transform="translate(-149.134,-130.359)">&#10;    <g
   transform="translate(148.712,134.765)"
   id="g5298"><path
   d="m 1.328125,-0.828125 c 0.53125,-0.578125 0.828125,-0.828125 1.1875,-1.140625 0,0 0.609375,-0.53125 0.96875,-0.890625 C 4.4375,-3.78125 4.65625,-4.265625 4.65625,-4.3125 c 0,-0.09375 -0.09375,-0.09375 -0.109375,-0.09375 -0.078125,0 -0.09375,0.015625 -0.15625,0.109375 -0.296875,0.484375 -0.5,0.640625 -0.734375,0.640625 -0.25,0 -0.359375,-0.15625 -0.515625,-0.328125 -0.1875,-0.21875 -0.359375,-0.421875 -0.6875,-0.421875 -0.75,0 -1.203125,0.921875 -1.203125,1.140625 0,0.046875 0.03125,0.109375 0.109375,0.109375 0.09375,0 0.109375,-0.046875 0.140625,-0.109375 0.1875,-0.46875 0.765625,-0.46875 0.84375,-0.46875 0.203125,0 0.390625,0.0625 0.625,0.140625 0.40625,0.15625 0.515625,0.15625 0.765625,0.15625 -0.359375,0.421875 -1.1875,1.140625 -1.375,1.296875 l -0.90625,0.84375 C 0.78125,-0.625 0.421875,-0.0625 0.421875,0.015625 c 0,0.09375 0.109375,0.09375 0.125,0.09375 0.078125,0 0.09375,-0.015625 0.15625,-0.125 0.234375,-0.359375 0.53125,-0.625 0.859375,-0.625 0.21875,0 0.328125,0.09375 0.578125,0.375 0.15625,0.21875 0.34375,0.375 0.625,0.375 1,0 1.578125,-1.265625 1.578125,-1.53125 0,-0.046875 -0.046875,-0.109375 -0.125,-0.109375 -0.09375,0 -0.109375,0.0625 -0.140625,0.140625 C 3.84375,-0.75 3.203125,-0.5625 2.875,-0.5625 c -0.1875,0 -0.375,-0.0625 -0.578125,-0.125 -0.34375,-0.125 -0.5,-0.171875 -0.703125,-0.171875 -0.015625,0 -0.171875,0 -0.265625,0.03125 z m 0,0"
   id="path5297" />&#10;      </g></g>&#10;</g><path
       style="fill:none;stroke:#000000;stroke-width:0.5;stroke-linecap:butt;stroke-linejoin:miter;stroke-dasharray:none;stroke-opacity:1;marker-end:url(#marker5301)"
       d="m 3471.2822,1725.4847 15.8382,13.5043"
       id="path5300" /><path
       style="fill:none;stroke:#000000;stroke-width:0.5;stroke-linecap:butt;stroke-linejoin:miter;stroke-dasharray:none;stroke-opacity:1;marker-end:url(#marker5303)"
       d="m 3471.1201,1749.6321 h 14.0168"
       id="path5302" /><path
       style="fill:none;stroke:#000000;stroke-width:0.5;stroke-linecap:butt;stroke-linejoin:miter;stroke-dasharray:none;stroke-opacity:1;marker-end:url(#marker5301)"
       d="m 3471.2822,1770.6898 15.8382,-13.5043"
       id="path5304" /><g
       id="g5315"
       transform="translate(3339.2011,539.44757)"><circle
         style="fill:#6f1d77;fill-opacity:1;stroke:#6f1d77;stroke-width:0.852091;stroke-linejoin:bevel;stroke-miterlimit:3.9;stroke-opacity:1"
         id="circle5304"
         cx="196.46132"
         cy="1186.4725"
         r="7.8773355"
         inkscape:export-filename="classificationgraph1.svg"
         inkscape:export-xdpi="200"
         inkscape:export-ydpi="200" /><circle
         style="fill:#6f1d77;fill-opacity:1;stroke:#6f1d77;stroke-width:0.852091;stroke-linejoin:bevel;stroke-miterlimit:3.9;stroke-opacity:1"
         id="circle5305"
         cx="196.46132"
         cy="1233.6675"
         r="7.8773355"
         inkscape:export-filename="classificationgraph1.svg"
         inkscape:export-xdpi="200"
         inkscape:export-ydpi="200" /><g
         transform="matrix(0,2.2216668,-2.2216668,0,197.62506,1199.0721)"
         ns1:version="1.9.0"
         ns1:texconverter="pdflatex"
         ns1:pdfconverter="inkscape"
         ns1:text="$\\cdots$"
         ns1:preamble="/home/iuribarcelos/.config/inkscape/extensions/textext/default_packages.tex"
         ns1:scale="2.927767037627063"
         ns1:alignment="middle center"
         ns1:stroke-to-path="0"
         ns1:inkscapeversion="1.3"
         id="g5314"
         ns1:jacobian_sqrt="1.03285"><defs
   id="defs5307" />&#10;  <g
   fill="#000000"
   fill-opacity="1"
   id="g5309"
   transform="translate(-149.571,-131.749)">&#10;    <g
   transform="translate(148.712,134.765)"
   id="g5308"><path
   d="m 1.90625,-2.5 c 0,-0.28125 -0.234375,-0.515625 -0.515625,-0.515625 -0.296875,0 -0.53125,0.234375 -0.53125,0.515625 0,0.296875 0.234375,0.53125 0.53125,0.53125 0.28125,0 0.515625,-0.234375 0.515625,-0.53125 z m 0,0"
   id="path5307" />&#10;      </g></g>&#10;  <g
   fill="#000000"
   fill-opacity="1"
   id="g5311"
   transform="translate(-149.571,-131.749)">&#10;    <g
   transform="translate(153.143,134.765)"
   id="g5310"><path
   d="m 1.90625,-2.5 c 0,-0.28125 -0.234375,-0.515625 -0.515625,-0.515625 -0.296875,0 -0.53125,0.234375 -0.53125,0.515625 0,0.296875 0.234375,0.53125 0.53125,0.53125 0.28125,0 0.515625,-0.234375 0.515625,-0.53125 z m 0,0"
   id="path5309" />&#10;      </g></g>&#10;  <g
   fill="#000000"
   fill-opacity="1"
   id="g5313"
   transform="translate(-149.571,-131.749)">&#10;    <g
   transform="translate(157.565,134.765)"
   id="g5312"><path
   d="m 1.90625,-2.5 c 0,-0.28125 -0.234375,-0.515625 -0.515625,-0.515625 -0.296875,0 -0.53125,0.234375 -0.53125,0.515625 0,0.296875 0.234375,0.53125 0.53125,0.53125 0.28125,0 0.515625,-0.234375 0.515625,-0.53125 z m 0,0"
   id="path5311" />&#10;      </g></g>&#10;</g></g><g
       transform="matrix(1.03285,0,0,1.03285,3534.3233,1722.5388)"
       ns1:version="1.9.0"
       ns1:texconverter="pdflatex"
       ns1:pdfconverter="inkscape"
       ns1:text="$1$"
       ns1:preamble="/home/iuribarcelos/.config/inkscape/extensions/textext/default_packages.tex"
       ns1:scale="2.927767037627063"
       ns1:alignment="middle center"
       ns1:stroke-to-path="0"
       ns1:inkscapeversion="1.3"
       id="g5321"
       ns1:jacobian_sqrt="1.03285"><defs
   id="defs5318" />&#10;  <g
   fill="#000000"
   fill-opacity="1"
   id="g5320"
   transform="translate(-149.603,-128.124)">&#10;    <g
   transform="translate(148.712,134.765)"
   id="g5319"><path
   d="m 2.9375,-6.375 c 0,-0.25 0,-0.265625 -0.234375,-0.265625 C 2.078125,-6 1.203125,-6 0.890625,-6 v 0.3125 c 0.203125,0 0.78125,0 1.296875,-0.265625 v 5.171875 c 0,0.359375 -0.03125,0.46875 -0.921875,0.46875 h -0.3125 V 0 c 0.34375,-0.03125 1.203125,-0.03125 1.609375,-0.03125 0.390625,0 1.265625,0 1.609375,0.03125 v -0.3125 h -0.3125 c -0.90625,0 -0.921875,-0.109375 -0.921875,-0.46875 z m 0,0"
   id="path5318"
   style="fill:#ffffff" />&#10;      </g></g>&#10;</g><g
       transform="matrix(1.03285,0,0,1.03285,3531.7325,1769.5975)"
       ns1:version="1.9.0"
       ns1:texconverter="pdflatex"
       ns1:pdfconverter="inkscape"
       ns1:text="$D$"
       ns1:preamble="/home/iuribarcelos/.config/inkscape/extensions/textext/default_packages.tex"
       ns1:scale="2.927767037627063"
       ns1:alignment="middle center"
       ns1:stroke-to-path="0"
       ns1:inkscapeversion="1.3"
       id="g5328"
       ns1:jacobian_sqrt="1.03285"><defs
   id="defs5324" />&#10;  <g
   fill="#000000"
   fill-opacity="1"
   id="g5327"
   transform="translate(-149.118,-127.953)">&#10;    <g
   transform="translate(148.712,134.765)"
   id="g5325"><path
   d="m 1.578125,-0.78125 c -0.09375,0.390625 -0.109375,0.46875 -0.90625,0.46875 -0.15625,0 -0.265625,0 -0.265625,0.1875 C 0.40625,0 0.484375,0 0.671875,0 h 3.3125 c 2.0625,0 4.03125,-2.109375 4.03125,-4.28125 0,-1.40625 -0.84375,-2.53125 -2.34375,-2.53125 h -3.34375 c -0.1875,0 -0.296875,0 -0.296875,0.1875 0,0.125 0.078125,0.125 0.28125,0.125 0.125,0 0.3125,0.015625 0.421875,0.015625 0.171875,0.03125 0.21875,0.046875 0.21875,0.171875 0,0.03125 0,0.0625 -0.03125,0.1875 z M 3.734375,-6.125 C 3.828125,-6.46875 3.84375,-6.5 4.28125,-6.5 h 1.0625 c 0.96875,0 1.796875,0.53125 1.796875,1.84375 0,0.484375 -0.1875,2.125 -1.046875,3.21875 -0.28125,0.375 -1.0625,1.125 -2.296875,1.125 h -1.125 c -0.140625,0 -0.15625,0 -0.21875,0 -0.09375,-0.015625 -0.125,-0.03125 -0.125,-0.109375 0,-0.03125 0,-0.046875 0.046875,-0.21875 z m 0,0"
   id="path5324"
   style="fill:#ffffff" />&#10;      </g></g>&#10;</g><g
       transform="matrix(1.41111,0,0,1.41111,3551.7122,1744.6017)"
       ns1:version="1.9.0"
       ns1:texconverter="pdflatex"
       ns1:pdfconverter="inkscape"
       ns1:text="$\\tilde{\\mathbf{x}}$"
       ns1:preamble="/home/iuribarcelos/.config/inkscape/extensions/textext/default_packages.tex"
       ns1:scale="4.0"
       ns1:alignment="middle center"
       ns1:stroke-to-path="0"
       ns1:inkscapeversion="1.3"
       id="g5336"
       ns1:jacobian_sqrt="1.41111"><defs
   id="defs5331" />&#10;  <g
   fill="#000000"
   fill-opacity="1"
   id="g5333"
   transform="translate(-148.931,-127.97)">&#10;    <g
   transform="translate(149.245,134.626)"
   id="g5332"><path
   d="M 4.140625,-6.515625 3.984375,-6.65625 c 0,0 -0.375,0.46875 -0.8125,0.46875 -0.234375,0 -0.484375,-0.140625 -0.65625,-0.25 C 2.25,-6.59375 2.078125,-6.65625 1.90625,-6.65625 c -0.375,0 -0.578125,0.21875 -1.078125,0.78125 l 0.15625,0.140625 c 0,0 0.375,-0.46875 0.8125,-0.46875 0.234375,0 0.484375,0.140625 0.65625,0.234375 0.265625,0.171875 0.453125,0.234375 0.625,0.234375 0.375,0 0.5625,-0.21875 1.0625,-0.78125 z m 0,0"
   id="path5331" />&#10;      </g></g>&#10;  <g
   fill="#000000"
   fill-opacity="1"
   id="g5335"
   transform="translate(-148.931,-127.97)">&#10;    <g
   transform="translate(148.712,134.765)"
   id="g5334"><path
   d="M 3.453125,-2.453125 4.609375,-3.75 C 4.75,-3.890625 4.8125,-3.953125 5.625,-3.953125 v -0.46875 c -0.34375,0.015625 -0.859375,0.03125 -0.90625,0.03125 -0.25,0 -0.75,-0.03125 -1.03125,-0.03125 v 0.46875 c 0.140625,0 0.265625,0.015625 0.375,0.078125 -0.03125,0.0625 -0.03125,0.09375 -0.078125,0.125 L 3.15625,-2.8125 2.171875,-3.953125 h 0.40625 v -0.46875 c -0.265625,0 -0.890625,0.03125 -1.21875,0.03125 -0.3125,0 -0.765625,-0.03125 -1.09375,-0.03125 v 0.46875 h 0.71875 L 2.53125,-2.125 1.21875,-0.65625 c -0.15625,0.1875 -0.515625,0.1875 -1,0.1875 V 0 c 0.34375,-0.015625 0.875,-0.03125 0.921875,-0.03125 0.25,0 0.828125,0.015625 1.015625,0.03125 v -0.46875 c -0.171875,0 -0.359375,-0.046875 -0.359375,-0.109375 0,-0.015625 0,-0.015625 0.0625,-0.09375 l 0.96875,-1.09375 1.09375,1.296875 H 3.53125 V 0 c 0.265625,-0.015625 0.875,-0.03125 1.203125,-0.03125 0.3125,0 0.765625,0.015625 1.09375,0.03125 V -0.46875 H 5.125 Z m 0,0"
   id="path5333" />&#10;      </g></g>&#10;</g><path
       style="fill:none;stroke:#000000;stroke-width:0.5;stroke-linecap:butt;stroke-linejoin:miter;stroke-dasharray:none;stroke-opacity:1;marker-start:url(#marker5339)"
       d="m 3522.8231,1725.4847 -15.8382,13.5043"
       id="path5336" /><path
       style="fill:none;stroke:#000000;stroke-width:0.5;stroke-linecap:butt;stroke-linejoin:miter;stroke-dasharray:none;stroke-opacity:1;marker-start:url(#marker5339)"
       d="m 3522.9852,1749.6321 h -14.0168"
       id="path5337" /><path
       style="fill:none;stroke:#000000;stroke-width:0.5;stroke-linecap:butt;stroke-linejoin:miter;stroke-dasharray:none;stroke-opacity:1;marker-start:url(#marker5339)"
       d="m 3522.8231,1770.6898 -15.8382,-13.5043"
       id="path5338" /><g
       transform="matrix(1.2759873,0,0,1.2759873,3472.2299,1707.8039)"
       ns1:version="1.9.0"
       ns1:texconverter="pdflatex"
       ns1:pdfconverter="inkscape"
       ns1:text="$\\mathbf{U}^\\mathrm{T}$"
       ns1:preamble="/home/iuribarcelos/.config/inkscape/extensions/textext/default_packages.tex"
       ns1:scale="4.0"
       ns1:alignment="middle center"
       ns1:stroke-to-path="0"
       ns1:inkscapeversion="1.3"
       id="g5346"
       ns1:jacobian_sqrt="1.41111"><defs
   id="id-a630461a-9547-4558-b85d-7670d9a5797e" />&#10;  <g
   fill="#000000"
   fill-opacity="1"
   id="id-47cd0f3e-ea30-4aed-a4ee-56df036426af"
   transform="translate(-149.103,-126.446)">&#10;    <g
   transform="translate(148.712,134.765)"
   id="g5344"><path
   d="m 7.34375,-6.078125 c 0,-0.21875 0.015625,-0.234375 0.296875,-0.265625 C 7.875,-6.375 7.890625,-6.375 8.171875,-6.375 h 0.25 v -0.46875 c -0.375,0.03125 -0.9375,0.03125 -1.328125,0.03125 -0.421875,0 -0.9375,0 -1.359375,-0.03125 V -6.375 h 0.25 c 0.1875,0 0.359375,0.015625 0.53125,0.03125 C 6.8125,-6.3125 6.8125,-6.296875 6.8125,-6.078125 v 3.75 c 0,1.484375 -1.078125,1.96875 -2.171875,1.96875 -1.734375,0 -1.765625,-1.3125 -1.765625,-1.859375 V -6.375 h 1.078125 v -0.46875 c -0.375,0.03125 -1.34375,0.03125 -1.78125,0.03125 -0.421875,0 -1.40625,0 -1.78125,-0.03125 V -6.375 H 1.46875 v 4.078125 c 0,1.3125 1.078125,2.40625 3.140625,2.40625 C 6.5,0.109375 7.34375,-1.0625 7.34375,-2.28125 Z m 0,0"
   id="id-6d676a17-67f3-46ba-abe6-188d52eba2ca" />&#10;      </g></g>&#10;  <g
   fill="#000000"
   fill-opacity="1"
   id="id-11a96fe3-f46e-47db-a5a5-a46a2992438e"
   transform="translate(-149.103,-126.446)">&#10;    <g
   transform="translate(157.526,131.149)"
   id="g5345"><path
   d="M 5.1875,-4.703125 H 0.484375 l -0.15625,1.59375 h 0.25 C 0.671875,-4.3125 0.875,-4.453125 1.9375,-4.453125 c 0.140625,0 0.34375,0 0.421875,0 0.15625,0.03125 0.15625,0.109375 0.15625,0.265625 v 3.609375 c 0,0.234375 0,0.328125 -0.734375,0.328125 H 1.484375 V 0 c 0.34375,-0.03125 1,-0.03125 1.359375,-0.03125 0.359375,0 1,0 1.34375,0.03125 V -0.25 H 3.890625 c -0.71875,0 -0.71875,-0.09375 -0.71875,-0.328125 V -4.1875 c 0,-0.15625 0,-0.234375 0.15625,-0.265625 0.0625,0 0.265625,0 0.40625,0 0.390625,0 0.6875,0 0.9375,0.125 C 4.984375,-4.125 5.03125,-3.6875 5.03125,-3.65625 l 0.0625,0.546875 h 0.25 z m 0,0"
   id="id-8ffe87f9-18b6-4dcb-80b5-cb6bba063222" />&#10;      </g></g>&#10;</g><g
       transform="matrix(1.2759873,0,0,1.2759873,3515.7654,1710.3319)"
       ns1:version="1.9.0"
       ns1:texconverter="pdflatex"
       ns1:pdfconverter="inkscape"
       ns1:text="$\\mathbf{U}$"
       ns1:preamble="/home/iuribarcelos/.config/inkscape/extensions/textext/default_packages.tex"
       ns1:scale="4.0"
       ns1:alignment="middle center"
       ns1:stroke-to-path="0"
       ns1:inkscapeversion="1.3"
       id="g5357"
       ns1:jacobian_sqrt="1.41111"><defs
   id="id-bcd38f5c-1eee-4c5e-a92f-ba87b49b74bf" />&#10;  <g
   fill="#000000"
   fill-opacity="1"
   id="id-a0e913fe-6f91-4b9d-a770-ee57f93bb2ac"
   transform="translate(-149.103,-127.921)">&#10;    <g
   transform="translate(146.087,134.765)"
   id="g5356"><path
   d="m 7.34375,-6.078125 c 0,-0.21875 0.015625,-0.234375 0.296875,-0.265625 C 7.875,-6.375 7.890625,-6.375 8.171875,-6.375 h 0.25 v -0.46875 c -0.375,0.03125 -0.9375,0.03125 -1.328125,0.03125 -0.421875,0 -0.9375,0 -1.359375,-0.03125 V -6.375 h 0.25 c 0.1875,0 0.359375,0.015625 0.53125,0.03125 C 6.8125,-6.3125 6.8125,-6.296875 6.8125,-6.078125 v 3.75 c 0,1.484375 -1.078125,1.96875 -2.171875,1.96875 -1.734375,0 -1.765625,-1.3125 -1.765625,-1.859375 V -6.375 h 1.078125 v -0.46875 c -0.375,0.03125 -1.34375,0.03125 -1.78125,0.03125 -0.421875,0 -1.40625,0 -1.78125,-0.03125 V -6.375 H 1.46875 v 4.078125 c 0,1.3125 1.078125,2.40625 3.140625,2.40625 C 6.5,0.109375 7.34375,-1.0625 7.34375,-2.28125 Z m 0,0"
   id="id-94028197-1b20-4b1e-b223-bc4a7b6f3571" />&#10;      </g></g>&#10;</g></g></svg>
