<?xml version="1.0" encoding="UTF-8" standalone="no"?>
<!-- Created with Inkscape (http://www.inkscape.org/) -->

<svg
   sodipodi:docname="figures_new_color.svg"
   inkscape:version="1.3 (0e150ed6c4, 2023-07-21)"
   id="svg854"
   version="1.1"
   viewBox="0 0 75.399017 86.116239"
   height="86.116188mm"
   width="75.399017mm"
   inkscape:export-filename="/home/home/ownCloud2/proposals/veni2021/figures/scheme.png"
   inkscape:export-xdpi="200"
   inkscape:export-ydpi="200"
   xml:space="preserve"
   xmlns:inkscape="http://www.inkscape.org/namespaces/inkscape"
   xmlns:sodipodi="http://sodipodi.sourceforge.net/DTD/sodipodi-0.dtd"
   xmlns="http://www.w3.org/2000/svg"
   xmlns:svg="http://www.w3.org/2000/svg"
   xmlns:rdf="http://www.w3.org/1999/02/22-rdf-syntax-ns#"
   xmlns:cc="http://creativecommons.org/ns#"
   xmlns:dc="http://purl.org/dc/elements/1.1/"
   xmlns:ns1="http://www.iki.fi/pav/software/textext/"><sodipodi:namedview
     id="base"
     pagecolor="#ffffff"
     bordercolor="#666666"
     borderopacity="1.0"
     inkscape:pageopacity="0.0"
     inkscape:pageshadow="2"
     inkscape:zoom="0.37189034"
     inkscape:cx="15774.811"
     inkscape:cy="-1527.332"
     inkscape:document-units="mm"
     inkscape:current-layer="layer1"
     showgrid="false"
     inkscape:window-width="1920"
     inkscape:window-height="1064"
     inkscape:window-x="0"
     inkscape:window-y="16"
     inkscape:window-maximized="1"
     inkscape:measure-start="1676.07,1011.79"
     inkscape:measure-end="1694.29,1021.79"
     fit-margin-top="0"
     fit-margin-left="0"
     fit-margin-right="0"
     fit-margin-bottom="0"
     inkscape:snap-object-midpoints="true"
     inkscape:snap-center="true"
     inkscape:snap-global="false"
     inkscape:lockguides="true"
     showguides="false"
     inkscape:snap-page="true"
     inkscape:showpageshadow="2"
     inkscape:pagecheckerboard="0"
     inkscape:deskcolor="#d1d1d1" /><defs
     id="defs848"><marker
       style="overflow:visible"
       id="marker191"
       refX="0"
       refY="0"
       orient="auto-start-reverse"
       inkscape:stockid="Dart arrow"
       markerWidth="1"
       markerHeight="1"
       viewBox="0 0 1 1"
       inkscape:isstock="true"
       inkscape:collect="always"
       preserveAspectRatio="xMidYMid"><path
         style="fill:context-stroke;fill-rule:evenodd;stroke:none"
         d="M 0,0 5,-5 -12.5,0 5,5 Z"
         transform="scale(-0.5)"
         id="path191" /></marker></defs><metadata
     id="metadata851"><rdf:RDF><cc:Work
         rdf:about=""><dc:format>image/svg+xml</dc:format><dc:type
           rdf:resource="http://purl.org/dc/dcmitype/StillImage" /></cc:Work></rdf:RDF></metadata><g
     inkscape:label="Layer 1"
     inkscape:groupmode="layer"
     id="layer1"
     transform="translate(-2686.8758,-857.82137)"><circle
       style="fill:none;fill-opacity:0.298163;stroke:#00b8c8;stroke-width:0.852091;stroke-linejoin:bevel;stroke-miterlimit:3.9;stroke-opacity:1"
       id="circle4842"
       cx="870.69189"
       cy="-2724.7837"
       r="7.8773355"
       inkscape:export-filename="../../../slides/figures/pcagraph1.pdf"
       inkscape:export-xdpi="200"
       inkscape:export-ydpi="200"
       transform="rotate(90)" /><circle
       style="fill:none;fill-opacity:0.298163;stroke:#00b8c8;stroke-width:0.852091;stroke-linejoin:bevel;stroke-miterlimit:3.9;stroke-opacity:1"
       id="circle4843"
       cx="904.21948"
       cy="-2724.7837"
       r="7.8773355"
       inkscape:export-filename="graphsymbols.png"
       inkscape:export-xdpi="200"
       inkscape:export-ydpi="200"
       transform="rotate(90)" /><path
       style="fill:none;stroke:#000000;stroke-width:0.5;stroke-linecap:butt;stroke-linejoin:miter;stroke-dasharray:none;stroke-opacity:1;marker-end:url(#marker191)"
       d="m 2724.7839,878.99527 v 13.79884"
       id="path4843"
       sodipodi:nodetypes="cc" /><g
       transform="matrix(1.03285,0,0,1.03285,2733.0878,857.82125)"
       ns1:version="1.9.0"
       ns1:texconverter="pdflatex"
       ns1:pdfconverter="inkscape"
       ns1:text="$\\mathbf{z}$"
       ns1:preamble="/home/iuribarcelos/.config/inkscape/extensions/textext/default_packages.tex"
       ns1:scale="2.927767037627063"
       ns1:alignment="middle center"
       ns1:stroke-to-path="0"
       ns1:inkscapeversion="1.3"
       id="g4851"
       ns1:jacobian_sqrt="1.03285"><defs
   id="defs4847" />&#10;  <g
   fill="#000000"
   fill-opacity="1"
   id="g4850"
   transform="translate(-149.025,-130.343)">&#10;    <g
   transform="translate(148.712,134.765)"
   id="g4849"><path
   d="M 4.46875,-4 C 4.5625,-4.109375 4.578125,-4.125 4.578125,-4.21875 4.578125,-4.421875 4.4375,-4.421875 4.25,-4.421875 H 0.59375 L 0.484375,-2.6875 h 0.46875 C 1,-3.703125 1.3125,-4.0625 2.34375,-4.0625 H 3.1875 l -2.78125,3.625 C 0.3125,-0.328125 0.3125,-0.3125 0.3125,-0.21875 0.3125,0 0.453125,0 0.640625,0 h 3.78125 l 0.1875,-2.015625 H 4.140625 C 4.046875,-1 3.890625,-0.40625 2.578125,-0.40625 H 1.71875 Z m 0,0"
   id="path4847" />&#10;      </g></g>&#10;</g><g
       transform="matrix(1.03285,0,0,1.03285,2733.0876,891.34883)"
       ns1:version="1.9.0"
       ns1:texconverter="pdflatex"
       ns1:pdfconverter="inkscape"
       ns1:text="$\\mathbf{x}$"
       ns1:preamble="/home/iuribarcelos/.config/inkscape/extensions/textext/default_packages.tex"
       ns1:scale="2.927767037627063"
       ns1:alignment="middle center"
       ns1:stroke-to-path="0"
       ns1:inkscapeversion="1.3"
       id="g4857"
       ns1:jacobian_sqrt="1.03285"><defs
   id="defs4854" />&#10;  <g
   fill="#000000"
   fill-opacity="1"
   id="g4856"
   transform="translate(-148.931,-130.343)">&#10;    <g
   transform="translate(148.712,134.765)"
   id="g4855"><path
   d="M 3.453125,-2.453125 4.609375,-3.75 C 4.75,-3.890625 4.8125,-3.953125 5.625,-3.953125 v -0.46875 c -0.34375,0.015625 -0.859375,0.03125 -0.90625,0.03125 -0.25,0 -0.75,-0.03125 -1.03125,-0.03125 v 0.46875 c 0.140625,0 0.265625,0.015625 0.375,0.078125 -0.03125,0.0625 -0.03125,0.09375 -0.078125,0.125 L 3.15625,-2.8125 2.171875,-3.953125 h 0.40625 v -0.46875 c -0.265625,0 -0.890625,0.03125 -1.21875,0.03125 -0.3125,0 -0.765625,-0.03125 -1.09375,-0.03125 v 0.46875 h 0.71875 L 2.53125,-2.125 1.21875,-0.65625 c -0.15625,0.1875 -0.515625,0.1875 -1,0.1875 V 0 c 0.34375,-0.015625 0.875,-0.03125 0.921875,-0.03125 0.25,0 0.828125,0.015625 1.015625,0.03125 v -0.46875 c -0.171875,0 -0.359375,-0.046875 -0.359375,-0.109375 0,-0.015625 0,-0.015625 0.0625,-0.09375 l 0.96875,-1.09375 1.09375,1.296875 H 3.53125 V 0 c 0.265625,-0.015625 0.875,-0.03125 1.203125,-0.03125 0.3125,0 0.765625,0.015625 1.09375,0.03125 V -0.46875 H 5.125 Z m 0,0"
   id="path4854" />&#10;      </g></g>&#10;</g><circle
       style="fill:#a50034;fill-opacity:0.5;stroke:#00b8c8;stroke-width:0.26045;stroke-linejoin:bevel;stroke-miterlimit:3.9;stroke-opacity:1"
       id="circle4864"
       cx="-904.21075"
       cy="2697.1279"
       r="2.4077845"
       transform="rotate(-90)" /><path
       style="fill:none;stroke:#000000;stroke-width:0.5;stroke-linecap:butt;stroke-linejoin:miter;stroke-dasharray:none;stroke-opacity:1;marker-end:url(#marker191)"
       d="m 2699.666,904.21948 h 13.7988"
       id="path4864"
       sodipodi:nodetypes="cc" /><g
       transform="matrix(1.03285,0,0,1.03285,2686.8756,900.79763)"
       ns1:version="1.9.0"
       ns1:texconverter="pdflatex"
       ns1:pdfconverter="inkscape"
       ns1:text="$\\boldsymbol{\\mu}$"
       ns1:preamble="/home/iuribarcelos/.config/inkscape/extensions/textext/default_packages.tex"
       ns1:scale="2.927767037627063"
       ns1:alignment="middle center"
       ns1:stroke-to-path="0"
       ns1:inkscapeversion="1.3"
       id="g4870"
       ns1:jacobian_sqrt="1.03285"><defs
   id="defs4867" />&#10;  <g
   fill="#000000"
   fill-opacity="1"
   id="g4869"
   transform="translate(-149.118,-130.265)">&#10;    <g
   transform="translate(148.712,134.765)"
   id="g4868"><path
   d="M 2.734375,-3.3125 C 2.796875,-3.5625 2.90625,-4 2.90625,-4.0625 2.90625,-4.28125 2.75,-4.5 2.4375,-4.5 1.921875,-4.5 1.796875,-4 1.765625,-3.890625 L 0.4375,1.40625 C 0.40625,1.5625 0.40625,1.625 0.40625,1.671875 c 0,0.3125 0.25,0.4375 0.46875,0.4375 0.1875,0 0.453125,-0.109375 0.59375,-0.390625 0.0625,-0.125 0.390625,-1.484375 0.453125,-1.796875 0.40625,0.15625 0.859375,0.15625 0.984375,0.15625 0.34375,0 0.796875,-0.0625 1.40625,-0.59375 0.234375,0.453125 0.796875,0.59375 1.15625,0.59375 0.375,0 0.65625,-0.203125 0.875,-0.5625 0.25,-0.40625 0.375,-0.9375 0.375,-0.984375 0,-0.140625 -0.15625,-0.140625 -0.234375,-0.140625 -0.109375,0 -0.15625,0 -0.203125,0.046875 -0.015625,0.015625 -0.015625,0.03125 -0.078125,0.28125 -0.203125,0.796875 -0.4375,1 -0.6875,1 -0.109375,0 -0.21875,-0.03125 -0.21875,-0.359375 0,-0.171875 0.03125,-0.34375 0.140625,-0.734375 l 0.25,-1.015625 c 0.046875,-0.21875 0.15625,-0.625 0.21875,-0.90625 0.0625,-0.21875 0.171875,-0.625 0.171875,-0.6875 0,-0.21875 -0.171875,-0.4375 -0.46875,-0.4375 -0.203125,0 -0.5625,0.109375 -0.671875,0.53125 l -0.6875,2.75 c -0.03125,0.1875 -0.203125,0.359375 -0.375,0.5 C 3.546875,-0.375 3.25,-0.28125 2.984375,-0.28125 2.296875,-0.28125 2.25,-0.765625 2.25,-1.0625 2.25,-1.328125 2.296875,-1.578125 2.34375,-1.75 Z m 0,0"
   id="path4867" />&#10;      </g></g>&#10;</g><circle
       style="fill:#a50034;fill-opacity:0.5;stroke:#00b8c8;stroke-width:0.26045;stroke-linejoin:bevel;stroke-miterlimit:3.9;stroke-opacity:1"
       id="circle4870"
       cx="-904.21075"
       cy="-2752.5488"
       r="2.4077845"
       transform="matrix(0,-1,-1,0,0,0)" /><path
       style="fill:none;stroke:#000000;stroke-width:0.5;stroke-linecap:butt;stroke-linejoin:miter;stroke-dasharray:none;stroke-opacity:1;marker-end:url(#marker191)"
       d="m 2750.0111,904.21948 h -13.7988"
       id="path4870"
       sodipodi:nodetypes="cc" /><circle
       style="fill:#a50034;fill-opacity:0.5;stroke:#00b8c8;stroke-width:0.26045;stroke-linejoin:bevel;stroke-miterlimit:3.9;stroke-opacity:1"
       id="circle4924"
       cx="-2724.7837"
       cy="-931.98169"
       r="2.4077845"
       transform="scale(-1)" /><path
       style="fill:none;stroke:#000000;stroke-width:0.5;stroke-linecap:butt;stroke-linejoin:miter;stroke-dasharray:none;stroke-opacity:1;marker-end:url(#marker191)"
       d="m 2724.7925,929.44365 v -13.7988"
       id="path4924"
       sodipodi:nodetypes="cc" /><g
       transform="matrix(1.03285,0,0,1.03285,2718.909,936.78808)"
       ns1:version="1.9.0"
       ns1:texconverter="pdflatex"
       ns1:pdfconverter="inkscape"
       ns1:text="$\\mathbf{W}$"
       ns1:preamble="/home/iuribarcelos/.config/inkscape/extensions/textext/default_packages.tex"
       ns1:scale="2.927767037627063"
       ns1:alignment="middle center"
       ns1:stroke-to-path="0"
       ns1:inkscapeversion="1.3"
       id="g4932"
       ns1:jacobian_sqrt="1.03285"><defs
   id="id-5193fb1b-1c32-4d6a-9926-e2b5660a7486" />&#10;  <g
   id="id-52d12467-6ff4-4f68-b9ea-da04c0704298"
   transform="translate(-148.946,-127.921)">&#10;    <g
   style="fill:#000000;fill-opacity:1"
   id="id-8cb59ca8-ce85-4a3a-9334-9f866f185c1e">&#10;      <g
   transform="translate(148.712,134.765)"
   id="g6494"><path
   style="stroke:none;stroke-width:0"
   d="m 10.65625,-6.125 c 0.0625,-0.171875 0.0625,-0.1875 0.375,-0.21875 C 11.234375,-6.375 11.4375,-6.375 11.609375,-6.375 v -0.46875 c -0.28125,0.015625 -0.625,0.03125 -1.078125,0.03125 -0.375,0 -0.984375,0 -1.34375,-0.03125 V -6.375 c 0.25,0 0.71875,0 1.015625,0.109375 L 8.484375,-1.796875 6.71875,-6.375 h 0.953125 v -0.46875 c -0.375,0.03125 -1.3125,0.03125 -1.734375,0.03125 -0.390625,0 -1.1875,0 -1.53125,-0.03125 V -6.375 H 5.265625 L 5.671875,-5.3125 4.3125,-1.796875 2.546875,-6.375 h 0.96875 V -6.84375 C 3.125,-6.8125 2.1875,-6.8125 1.765625,-6.8125 c -0.390625,0 -1.171875,0 -1.53125,-0.03125 V -6.375 H 1.09375 l 2.390625,6.203125 c 0.0625,0.15625 0.109375,0.25 0.359375,0.25 0.25,0 0.28125,-0.09375 0.34375,-0.25 l 1.734375,-4.5 1.734375,4.5 c 0.0625,0.15625 0.09375,0.25 0.34375,0.25 0.25,0 0.296875,-0.09375 0.359375,-0.25 z m 0,0"
   id="id-ac96aaa5-23b4-4890-984d-1097d6184789" />&#10;      </g></g>&#10;  </g>&#10;</g><g
       transform="matrix(1.03285,0,0,1.03285,2756.82,901.936)"
       ns1:version="1.9.0"
       ns1:texconverter="pdflatex"
       ns1:pdfconverter="inkscape"
       ns1:text="$\\sigma$"
       ns1:preamble="/home/iuribarcelos/.config/inkscape/extensions/textext/default_packages.tex"
       ns1:scale="2.927767037627063"
       ns1:alignment="middle center"
       ns1:stroke-to-path="0"
       ns1:inkscapeversion="1.3"
       id="g4877"
       ns1:jacobian_sqrt="1.03285"><defs
   id="id-192070a6-8bde-4e12-afa4-104a37d5bbfa" />&#10;  <g
   id="id-01099512-1e50-4817-892c-23d6fb03bdd8"
   transform="translate(-149.087,-130.468)">&#10;    <g
   style="fill:#000000;fill-opacity:1"
   id="id-ca5e28f7-cae1-4452-81ab-0bc6b4ed7586">&#10;      <g
   transform="translate(148.712,134.765)"
   id="g5456"><path
   style="stroke:none"
   d="m 5.15625,-3.71875 c 0.140625,0 0.5,0 0.5,-0.34375 0,-0.234375 -0.21875,-0.234375 -0.390625,-0.234375 h -2.28125 c -1.5,0 -2.609375,1.640625 -2.609375,2.828125 0,0.875 0.59375,1.578125 1.5,1.578125 1.171875,0 2.5,-1.203125 2.5,-2.734375 0,-0.171875 0,-0.65625 -0.3125,-1.09375 z M 1.890625,-0.109375 C 1.390625,-0.109375 1,-0.46875 1,-1.1875 c 0,-0.296875 0.109375,-1.109375 0.46875,-1.703125 0.421875,-0.6875 1.015625,-0.828125 1.359375,-0.828125 0.828125,0 0.90625,0.65625 0.90625,0.96875 0,0.46875 -0.203125,1.28125 -0.53125,1.796875 -0.390625,0.578125 -0.9375,0.84375 -1.3125,0.84375 z m 0,0"
   id="id-080680c8-3657-4910-9979-e91d8fe1e968" />&#10;      </g></g>&#10;  </g>&#10;</g></g></svg>
